<svg xmlns="http://www.w3.org/2000/svg" width="24" height="24" fill="none" viewBox="0 0 24 24" class="h-5 w-5 shrink-0"><path fill="currentColor" fill-rule="evenodd" d="M12 4a3 3 0 1 0 0 6 3 3 0 0 0 0-6M7 7a5 5 0 1 1 10 0A5 5 0 0 1 7 7M10.968 14.002a1 1 0 0 1-.719 1.218C7.467 15.937 5.5 18.29 5.5 21a1 1 0 1 1-2 0c0-3.729 2.69-6.8 6.25-7.717a1 1 0 0 1 1.218.72" clip-rule="evenodd"></path><path fill="currentColor" d="M17.25 15.625a1.625 1.625 0 1 1-3.25 0 1.625 1.625 0 0 1 3.25 0M21.75 15.625a1.625 1.625 0 1 1-3.25 0 1.625 1.625 0 0 1 3.25 0M21.75 20.125a1.625 1.625 0 1 1-3.25 0 1.625 1.625 0 0 1 3.25 0M17.25 20.125a1.625 1.625 0 1 1-3.25 0 1.625 1.625 0 0 1 3.25 0"></path></svg>